<?xml version="1.0" encoding="iso-8859-1"?>
<!-- Uploaded to: SVG Repo, www.svgrepo.com, Generator: SVG Repo Mixer Tools -->
<svg height="800px" width="800px" version="1.1" id="Layer_1" xmlns="http://www.w3.org/2000/svg" xmlns:xlink="http://www.w3.org/1999/xlink" 
	 viewBox="0 0 511.971 511.971" xml:space="preserve">
<g transform="translate(1 1)">
	<g>
		<path style="fill:#FFE100;" d="M183.627,414.461c-5.036,0-8.393-3.357-8.393-8.393s-3.357-8.393-8.393-8.393
			s-8.393,3.357-8.393,8.393s-3.357,8.393-8.393,8.393s-8.393-3.357-8.393-8.393c0-9.233-7.554-16.787-16.787-16.787
			c-5.036,0-8.393-3.357-8.393-8.393c0-5.036-3.357-8.393-8.393-8.393c-5.036,0-8.393,3.357-8.393,8.393
			c0,5.036-3.357,8.393-8.393,8.393H74.512c-9.233,0-16.787,7.554-16.787,16.787c0,5.036-3.357,8.393-8.393,8.393
			s-8.393-3.357-8.393-8.393c0-18.466,15.108-33.574,33.574-33.574h10.072c3.357-10.072,12.59-16.787,23.502-16.787
			s20.984,7.554,24.341,17.626c7.554,1.679,15.108,6.715,19.305,12.59c4.197-3.357,9.233-5.036,15.108-5.036
			c14.269,0,25.18,10.911,25.18,25.18C192.02,411.104,188.663,414.461,183.627,414.461z"/>
		<path style="fill:#FFE100;" d="M435.43,506.789c-5.036,0-8.393-3.357-8.393-8.393c0-5.036-3.357-8.393-8.393-8.393
			c-5.036,0-8.393,3.357-8.393,8.393c0,5.036-3.357,8.393-8.393,8.393s-8.393-3.357-8.393-8.393c0-9.233-7.554-16.787-16.787-16.787
			c-5.036,0-8.393-3.357-8.393-8.393c0-5.036-3.357-8.393-8.393-8.393c-5.036,0-8.393,3.357-8.393,8.393
			c0,5.036-3.357,8.393-8.393,8.393h-16.787c-9.233,0-16.787,7.554-16.787,16.787c0,5.036-3.357,8.393-8.393,8.393
			s-8.393-3.357-8.393-8.393c0-18.466,15.108-33.574,33.574-33.574h10.072c3.357-10.072,12.59-16.787,23.502-16.787
			s20.984,7.554,24.341,17.626c7.554,1.679,15.108,6.715,19.305,12.59c4.197-3.357,9.233-5.036,15.108-5.036
			c14.269,0,25.18,10.911,25.18,25.18C443.824,503.431,440.466,506.789,435.43,506.789z"/>
		<path style="fill:#FFE100;" d="M410.25,439.641c-14.269,0-25.18-10.911-25.18-25.18c0-11.751,7.554-20.984,17.626-24.341
			c3.357-10.072,12.59-17.626,24.341-17.626c10.911,0,20.984,7.554,24.341,17.626c7.554,1.679,15.108,6.715,19.305,12.59
			c4.197-3.357,9.233-5.036,15.108-5.036c14.269,0,25.18,10.911,25.18,25.18c0,5.036-3.357,8.393-8.393,8.393
			c-5.036,0-8.393-3.357-8.393-8.393c0-5.036-3.357-8.393-8.393-8.393s-8.393,3.357-8.393,8.393c0,5.036-3.357,8.393-8.393,8.393
			c-5.036,0-8.393-3.357-8.393-8.393c0-9.233-7.554-16.787-16.787-16.787c-5.036,0-8.393-3.357-8.393-8.393
			c0-5.036-3.357-8.393-8.393-8.393c-5.036,0-8.393,3.357-8.393,8.393c0,5.036-4.197,8.393-9.233,8.393
			c-4.197,0-7.554,4.197-7.554,8.393c0,5.036,3.357,8.393,8.393,8.393c5.036,0,8.393,3.357,8.393,8.393
			S415.286,439.641,410.25,439.641z"/>
		<path style="fill:#FFE100;" d="M141.66,498.395c-14.269,0-25.18-10.911-25.18-25.18c0-11.751,7.554-20.984,17.626-24.341
			c3.357-10.072,12.59-17.626,24.341-17.626c10.911,0,20.984,7.554,24.341,17.626c7.554,1.679,15.108,6.715,19.305,12.59
			c4.197-3.357,9.233-5.036,15.108-5.036c14.269,0,25.18,10.911,25.18,25.18c0,5.036-3.357,8.393-8.393,8.393
			s-8.393-3.357-8.393-8.393s-3.357-8.393-8.393-8.393s-8.393,3.357-8.393,8.393s-3.357,8.393-8.393,8.393
			c-5.036,0-8.393-3.357-8.393-8.393c0-9.233-7.554-16.787-16.787-16.787c-5.036,0-8.393-3.357-8.393-8.393
			s-3.357-8.393-8.393-8.393c-5.036,0-8.393,3.357-8.393,8.393s-4.197,8.393-9.233,8.393c-4.197,0-7.554,4.197-7.554,8.393
			c0,5.036,3.357,8.393,8.393,8.393c5.036,0,8.393,3.357,8.393,8.393C150.053,495.038,146.696,498.395,141.66,498.395z"/>
		<path style="fill:#FFE100;" d="M259.168,70.33c-5.036,0-8.393-3.357-8.393-8.393V11.576c0-5.036,3.357-8.393,8.393-8.393
			c5.036,0,8.393,3.357,8.393,8.393v50.361C267.561,66.973,264.204,70.33,259.168,70.33z"/>
		<path style="fill:#FFE100;" d="M366.604,114.815c-2.518,0-4.197-0.839-5.875-2.518c-3.357-3.357-3.357-8.393,0-11.751
			l23.502-23.502c3.357-3.357,8.393-3.357,11.751,0c3.357,3.357,3.357,8.393,0,11.751l-23.502,23.502
			C370.801,113.976,369.122,114.815,366.604,114.815z"/>
		<path style="fill:#FFE100;" d="M414.447,66.973c-2.518,0-4.197-0.839-5.875-2.518c-3.357-3.357-3.357-8.393,0-11.751l5.875-5.875
			c3.357-3.357,8.393-3.357,11.751,0s3.357,8.393,0,11.751l-5.875,5.875C418.643,66.133,416.125,66.973,414.447,66.973z"/>
		<path style="fill:#FFE100;" d="M153.411,114.815c-2.518,0-4.197-0.839-5.875-2.518l-23.502-23.502
			c-3.357-3.357-3.357-8.393,0-11.751c3.357-3.357,8.393-3.357,11.751,0l23.502,23.502c3.357,3.357,3.357,8.393,0,11.751
			C157.607,113.976,155.089,114.815,153.411,114.815z"/>
		<path style="fill:#FFE100;" d="M105.568,66.973c-2.518,0-4.197-0.839-5.875-2.518l-5.875-5.875c-3.357-3.357-3.357-8.393,0-11.751
			s8.393-3.357,11.751,0l5.875,5.875c3.357,3.357,3.357,8.393,0,11.751C109.765,66.133,108.086,66.973,105.568,66.973z"/>
		<polyline style="fill:#FFE100;" points="7.365,372.494 116.479,187.838 217.201,372.494 		"/>
		<polygon style="fill:#FFE100;" points="326.315,154.264 295.26,207.982 295.26,207.982 340.584,284.363 370.801,229.805 		"/>
		<polyline style="fill:#FFE100;" points="494.184,372.494 393.463,187.838 316.243,329.687 		"/>
		<polygon style="fill:#FFE100;" points="242.381,120.691 157.607,262.54 217.201,372.494 228.112,372.494 284.348,271.772 
			316.243,329.687 340.584,284.363 		"/>
		<path style="fill:#FFE100;" d="M393.463,187.838l8.393,15.948c-4.197-78.898-70.505-141.849-151.082-141.849
			c-83.095,0-150.243,67.987-150.243,151.082h0.839l15.108-25.18l41.128,74.702l84.774-141.849l98.203,163.672L393.463,187.838z"/>
	</g>
	<path style="fill:#FFA800;" d="M401.856,196.232c-5.036-78.898-71.344-142.689-151.082-142.689c-2.518,0-5.875,0-8.393,0.839
		c76.38,4.197,137.652,66.308,142.689,141.849H401.856z"/>
	<path style="fill:#FFFFFF;" d="M99.693,204.625c5.036-78.898,71.344-142.689,151.082-142.689c2.518,0,5.875,0,8.393,0.839
		c-75.541,4.197-137.652,65.469-141.849,141.849H99.693z"/>
	<polyline style="fill:#FFE100;" points="200.414,422.854 284.348,271.772 368.283,422.854 	"/>
	<g>
		<path style="fill:#FDCC00;" d="M111.443,281.845l5.036,6.715l5.036-6.715c7.554-11.751,19.305-20.144,32.734-25.18l-37.77-68.826
			l-40.289,67.987l2.518,0.839C92.138,260.861,103.889,270.094,111.443,281.845"/>
		<path style="fill:#FDCC00;" d="M386.748,270.094l6.715,10.072l6.715-10.072c6.715-9.233,15.948-16.787,26.859-20.144
			l-33.574-62.111l-33.574,61.272l0,0C370.801,253.307,380.034,260.022,386.748,270.094"/>
		<path style="fill:#FDCC00;" d="M275.115,342.277l9.233,13.429l9.233-13.429c5.036-7.554,11.751-13.43,20.144-17.626
			l-29.377-52.879l-29.377,52.879C263.365,328.009,270.079,334.723,275.115,342.277"/>
		<path style="fill:#FDCC00;" d="M302.814,194.553c5.875,5.875,14.269,10.072,23.502,10.072c9.233,0,17.626-3.357,23.502-10.072
			l-23.502-40.289L302.814,194.553z"/>
		<path style="fill:#FDCC00;" d="M242.381,120.691l-47.003,78.059l0,0c14.269,3.357,26.859,11.751,35.252,23.502l11.751,15.948
			l11.751-15.108c8.393-11.751,20.984-20.144,35.252-23.502L242.381,120.691z"/>
	</g>
	<path d="M250.775,70.33c-5.036,0-8.393-3.357-8.393-8.393V11.576c0-5.036,3.357-8.393,8.393-8.393c5.036,0,8.393,3.357,8.393,8.393
		v50.361C259.168,66.973,255.811,70.33,250.775,70.33z"/>
	<path d="M358.211,114.815c-2.518,0-4.197-0.839-5.875-2.518c-3.357-3.357-3.357-8.393,0-11.751l23.502-23.502
		c3.357-3.357,8.393-3.357,11.751,0c3.357,3.357,3.357,8.393,0,11.751l-23.502,23.502
		C362.407,113.976,360.729,114.815,358.211,114.815z"/>
	<path d="M406.053,66.973c-2.518,0-4.197-0.839-5.875-2.518c-3.357-3.357-3.357-8.393,0-11.751l5.875-5.875
		c3.357-3.357,8.393-3.357,11.751,0s3.357,8.393,0,11.751l-5.875,5.875C410.25,66.133,407.732,66.973,406.053,66.973z"/>
	<path d="M145.017,114.815c-2.518,0-4.197-0.839-5.875-2.518L115.64,88.795c-3.357-3.357-3.357-8.393,0-11.751s8.393-3.357,11.751,0
		l23.502,23.502c3.357,3.357,3.357,8.393,0,11.751C149.214,113.976,146.696,114.815,145.017,114.815z"/>
	<path d="M97.175,66.973c-2.518,0-4.197-0.839-5.875-2.518l-5.875-5.875c-3.357-3.357-3.357-8.393,0-11.751
		c3.357-3.357,8.393-3.357,11.751,0l5.875,5.875c3.357,3.357,3.357,8.393,0,11.751C101.371,66.133,99.693,66.973,97.175,66.973z"/>
	<path d="M217.201,380.887c-3.357,0-5.875-1.679-7.554-4.197l-93.167-172.066L14.919,376.691c-2.518,4.197-7.554,5.036-11.751,3.357
		c-4.197-2.518-5.036-7.554-3.357-11.751l109.115-184.656c1.679-2.518,4.197-4.197,7.554-4.197s5.875,1.679,7.554,4.197
		l100.721,184.656c2.518,4.197,0.839,9.233-3.357,11.751C219.719,380.887,218.879,380.887,217.201,380.887z"/>
	<path d="M340.584,292.756c-3.357,0-5.875-1.679-7.554-4.197l-46.164-76.38c-1.679-2.518-1.679-5.875,0-8.393l31.056-53.718
		c1.679-2.518,4.197-4.197,7.554-4.197l0,0c3.357,0,5.875,1.679,7.554,4.197l44.485,75.541c1.679,2.518,1.679,5.875,0,8.393
		l-29.377,54.557C346.46,291.077,343.942,292.756,340.584,292.756L340.584,292.756z M304.493,207.982l36.092,59.593l20.144-37.77
		l-34.413-58.754L304.493,207.982z"/>
	<path d="M494.184,380.887c-3.357,0-5.875-1.679-7.554-4.197l-93.167-171.226l-69.666,127.58c-2.518,4.197-7.554,5.875-11.751,3.357
		s-5.875-7.554-3.357-11.751l77.22-141.849c1.679-2.518,4.197-4.197,7.554-4.197l0,0c3.357,0,5.875,1.679,7.554,4.197
		l100.721,184.656c2.518,4.197,0.839,9.233-3.357,11.751C496.702,380.887,495.863,380.887,494.184,380.887z"/>
	<path d="M175.234,406.068c-5.036,0-8.393-3.357-8.393-8.393c0-5.036-3.357-8.393-8.393-8.393c-5.036,0-8.393,3.357-8.393,8.393
		c0,5.036-3.357,8.393-8.393,8.393c-5.036,0-8.393-3.357-8.393-8.393c0-9.233-7.554-16.787-16.787-16.787
		c-5.036,0-8.393-3.357-8.393-8.393c0-5.036-3.357-8.393-8.393-8.393c-5.036,0-8.393,3.357-8.393,8.393
		c0,5.036-3.357,8.393-8.393,8.393H66.119c-9.233,0-16.787,7.554-16.787,16.787c0,5.036-3.357,8.393-8.393,8.393
		s-8.393-3.357-8.393-8.393c0-18.466,15.108-33.574,33.574-33.574h10.072c3.357-10.072,12.59-16.787,23.502-16.787
		s20.984,7.554,24.341,17.626c7.554,1.679,15.108,6.715,19.305,12.59c4.197-3.357,9.233-5.036,15.108-5.036
		c14.269,0,25.18,10.911,25.18,25.18C183.627,402.71,180.27,406.068,175.234,406.068z"/>
	<path d="M427.037,498.395c-5.036,0-8.393-3.357-8.393-8.393c0-5.036-3.357-8.393-8.393-8.393c-5.036,0-8.393,3.357-8.393,8.393
		c0,5.036-3.357,8.393-8.393,8.393c-5.036,0-8.393-3.357-8.393-8.393c0-9.233-7.554-16.787-16.787-16.787
		c-5.036,0-8.393-3.357-8.393-8.393c0-5.036-3.357-8.393-8.393-8.393s-8.393,3.357-8.393,8.393c0,5.036-3.357,8.393-8.393,8.393
		h-16.787c-9.233,0-16.787,7.554-16.787,16.787c0,5.036-3.357,8.393-8.393,8.393c-5.036,0-8.393-3.357-8.393-8.393
		c0-18.466,15.108-33.574,33.574-33.574h10.072c3.357-10.072,12.59-16.787,23.502-16.787s20.984,7.554,24.341,17.626
		c7.554,1.679,15.108,6.715,19.305,12.59c4.197-3.357,9.233-5.036,15.108-5.036c14.269,0,25.18,10.911,25.18,25.18
		C435.43,495.038,432.073,498.395,427.037,498.395z"/>
	<path d="M228.112,380.887h-10.911c-3.357,0-5.875-1.679-7.554-4.197l-59.593-109.954c-1.679-2.518-1.679-5.875,0-8.393
		l84.774-141.849c1.679-2.518,4.197-4.197,7.554-4.197l0,0c3.357,0,5.875,1.679,7.554,4.197l98.203,163.672
		c1.679,2.518,1.679,5.875,0,8.393l-24.341,44.485c-1.679,2.518-4.197,4.197-7.554,4.197l0,0c-3.357,0-5.875-1.679-7.554-4.197
		l-24.341-43.646l-48.682,87.292C233.988,379.209,231.47,380.887,228.112,380.887z M222.237,364.1h1.679l53.718-96.525
		c1.679-2.518,4.197-4.197,7.554-4.197l0,0c3.357,0,5.875,1.679,7.554,4.197l24.341,44.485l15.108-26.859l-89.81-148.564
		L166.84,262.54L222.237,364.1z"/>
	<path d="M401.856,431.248c-14.269,0-25.18-10.911-25.18-25.18c0-11.751,7.554-20.984,17.626-24.341
		c3.357-10.072,12.59-17.626,24.341-17.626c10.911,0,20.984,7.554,24.341,17.626c7.554,1.679,15.108,6.715,19.305,12.59
		c4.197-3.357,9.233-5.036,15.108-5.036c14.269,0,25.18,10.911,25.18,25.18c0,5.036-3.357,8.393-8.393,8.393
		c-5.036,0-8.393-3.357-8.393-8.393c0-5.036-3.357-8.393-8.393-8.393c-5.036,0-8.393,3.357-8.393,8.393
		c0,5.036-3.357,8.393-8.393,8.393s-8.393-3.357-8.393-8.393c0-9.233-7.554-16.787-16.787-16.787c-5.036,0-8.393-3.357-8.393-8.393
		c0-5.036-3.357-8.393-8.393-8.393c-5.036,0-8.393,3.357-8.393,8.393c0,5.036-4.197,8.393-9.233,8.393
		c-4.197,0-7.554,4.197-7.554,8.393c0,5.036,3.357,8.393,8.393,8.393s8.393,3.357,8.393,8.393
		C410.25,427.891,406.893,431.248,401.856,431.248z"/>
	<path d="M133.266,490.002c-14.269,0-25.18-10.911-25.18-25.18c0-11.751,7.554-20.984,17.626-24.341
		c3.357-10.072,12.59-17.626,24.341-17.626c10.911,0,20.984,7.554,24.341,17.626c7.554,1.679,15.108,6.715,19.305,12.59
		c4.197-3.357,9.233-5.036,15.108-5.036c14.269,0,25.18,10.911,25.18,25.18c0,5.036-3.357,8.393-8.393,8.393
		c-5.036,0-8.393-3.357-8.393-8.393c0-5.036-3.357-8.393-8.393-8.393c-5.036,0-8.393,3.357-8.393,8.393
		c0,5.036-3.357,8.393-8.393,8.393s-8.393-3.357-8.393-8.393c0-9.233-7.554-16.787-16.787-16.787c-5.036,0-8.393-3.357-8.393-8.393
		c0-5.036-3.357-8.393-8.393-8.393s-8.393,3.357-8.393,8.393c0,5.036-4.197,8.393-9.233,8.393c-4.197,0-7.554,4.197-7.554,8.393
		c0,5.036,3.357,8.393,8.393,8.393c5.036,0,8.393,3.357,8.393,8.393S138.302,490.002,133.266,490.002z"/>
	<path d="M116.479,296.953c-2.518,0-5.036-1.679-6.715-3.357l-5.036-6.715c-6.715-10.072-16.787-17.626-28.538-21.823l-2.518-1.679
		c-2.518-0.839-4.197-2.518-5.036-5.036c-0.839-2.518-0.839-5.036,0.839-7.554l40.289-67.987c1.679-2.518,4.197-4.197,7.554-4.197
		s5.875,1.679,7.554,4.197l37.77,68.826c0.839,2.518,1.679,5.036,0.839,6.715c-0.839,2.518-2.518,4.197-5.036,5.036
		c-11.751,4.197-21.823,11.751-28.538,21.823l-5.036,6.715C121.516,295.274,118.997,296.953,116.479,296.953L116.479,296.953z
		 M88.781,251.628c10.911,5.036,20.144,12.59,27.698,22.662c6.715-9.233,15.948-15.948,26.02-20.984l-26.02-48.682L88.781,251.628z"
		/>
	<path d="M393.463,288.559L393.463,288.559c-2.518,0-5.036-1.679-6.715-3.357l-6.715-10.072
		c-5.036-7.554-13.43-14.269-22.662-16.787c-2.518-0.839-4.197-2.518-5.036-5.036s-0.839-5.036,0.839-6.715l33.574-61.272
		c2.518-5.036,11.751-5.036,15.108,0l33.574,61.272c0.839,2.518,1.679,5.036,0.839,6.715c-0.839,1.679-2.518,4.197-5.036,5.036
		c-9.233,3.357-16.787,9.233-22.662,16.787l-6.715,10.072C398.499,286.881,395.981,288.559,393.463,288.559z M371.64,245.753
		c8.393,5.036,15.948,11.751,21.823,19.305c5.875-8.393,13.429-15.108,21.823-19.305l-21.823-40.289L371.64,245.753z"/>
	<path d="M284.348,364.1L284.348,364.1c-2.518,0-5.036-1.679-6.715-3.357l-9.233-13.43c-4.197-6.715-10.072-11.751-16.787-15.108
		c-1.679-0.839-3.357-2.518-4.197-5.036c-0.839-2.518-0.839-4.197,0.839-6.715l29.377-52.879c3.357-5.036,11.751-5.036,14.269,0
		l29.377,52.879c0.839,1.679,1.679,4.197,0.839,6.715c-0.839,2.518-2.518,4.197-4.197,5.036c-6.715,3.357-12.59,8.393-16.787,15.108
		l-9.233,13.43C289.384,362.422,286.866,364.1,284.348,364.1z M266.722,321.294c5.875,4.197,11.751,10.072,15.948,15.948
		l2.518,3.357l2.518-3.357c4.197-6.715,9.233-11.751,15.948-15.948l-19.305-31.895L266.722,321.294z"/>
	<path d="M326.315,213.018c-10.911,0-21.823-4.197-29.377-12.59c-2.518-2.518-3.357-6.715-1.679-10.072l23.502-40.289
		c1.679-2.518,4.197-4.197,7.554-4.197l0,0c3.357,0,5.875,1.679,7.554,4.197l23.502,40.289c1.679,3.357,1.679,7.554-1.679,10.072
		C348.138,208.822,337.227,213.018,326.315,213.018z M313.725,192.874c7.554,4.197,17.626,4.197,25.18,0l-12.59-21.823
		L313.725,192.874z"/>
	<path d="M242.381,246.592c-2.518,0-5.036-0.839-6.715-3.357l-11.751-15.108c-7.554-10.072-18.466-17.626-31.056-20.144
		c-2.518-0.839-5.036-2.518-5.875-5.036c-0.839-2.518-0.839-5.036,0.839-7.554l47.003-78.059c3.357-5.036,11.751-5.036,14.269,0
		l47.003,78.059c1.679,2.518,1.679,5.036,0.839,7.554c-0.839,2.518-3.357,4.197-5.875,5.036
		c-12.59,3.357-23.502,10.072-31.056,20.144l-11.751,15.108C247.417,245.753,244.899,246.592,242.381,246.592z M207.968,194.553
		c11.751,5.036,21.823,12.59,29.377,23.502l5.036,6.715l5.036-6.715c7.554-10.072,17.626-18.466,29.377-23.502l-34.413-57.915
		L207.968,194.553z"/>
	<path d="M340.584,292.756c-3.357,0-5.875-1.679-7.554-4.197l-90.649-151.921l-78.059,130.098c-1.679,2.518-4.197,4.197-7.554,4.197
		s-5.875-1.679-7.554-4.197l-32.734-62.111l-7.554,12.59c-1.679,2.518-4.197,4.197-7.554,4.197h-0.839
		c-5.036,0-8.393-3.357-8.393-8.393c0-88.131,71.344-159.475,158.636-159.475c83.934,0,153.6,64.63,159.475,147.725
		c0,0.839,0,1.679,0,2.518c0,5.036-3.357,8.393-8.393,8.393l0,0c-3.357,0-5.875-1.679-7.554-4.197l-0.839-2.518l-45.325,83.095
		C346.46,291.077,343.942,292.756,340.584,292.756L340.584,292.756z M242.381,112.297L242.381,112.297
		c3.357,0,5.875,1.679,7.554,4.197l90.649,151.082l45.325-83.934c0.839-1.679,2.518-3.357,4.197-3.357
		C374.997,117.333,317.922,70.33,250.775,70.33s-123.384,47.003-138.492,109.954c1.679-0.839,2.518-0.839,4.197-0.839
		c3.357,0,5.875,1.679,7.554,4.197l33.574,62.111l77.22-129.259C236.506,113.976,239.024,112.297,242.381,112.297z"/>
	<path d="M368.283,431.248c-3.357,0-5.875-1.679-7.554-4.197l-76.38-137.652l-76.38,137.652c-2.518,4.197-7.554,5.875-11.751,3.357
		c-4.197-2.518-5.875-7.554-3.357-11.751l83.934-151.082c3.357-5.036,11.751-5.036,14.269,0l83.934,151.082
		c2.518,4.197,0.839,9.233-3.357,11.751C370.801,431.248,369.961,431.248,368.283,431.248z"/>
</g>
</svg>